<svg version="1.1" viewBox="0.0 0.0 959.3228346456693 325.5223097112861" fill="none" stroke="none" stroke-linecap="square" stroke-miterlimit="10" xmlns:xlink="http://www.w3.org/1999/xlink" xmlns="http://www.w3.org/2000/svg"><clipPath id="p.0"><path d="m0 0l959.3228 0l0 325.5223l-959.3228 0l0 -325.5223z" clip-rule="nonzero"/></clipPath><g clip-path="url(#p.0)"><path fill="#000000" fill-opacity="0.0" d="m0 0l959.3228 0l0 325.5223l-959.3228 0z" fill-rule="evenodd"/><path fill="#d9ead3" d="m309.2966 95.54855l317.41733 0l0 107.49606l-317.41733 0z" fill-rule="evenodd"/><path stroke="#999999" stroke-width="2.0" stroke-linejoin="round" stroke-linecap="butt" d="m309.2966 95.54855l317.41733 0l0 107.49606l-317.41733 0z" fill-rule="evenodd"/><path fill="#000000" fill-opacity="0.0" d="m468.00525 95.54855l0 107.49606" fill-rule="evenodd"/><path stroke="#999999" stroke-width="2.0" stroke-linejoin="round" stroke-linecap="butt" d="m468.00525 95.54855l0 107.49606" fill-rule="evenodd"/><path fill="#000000" fill-opacity="0.0" d="m309.2966 149.29659l-205.85828 0" fill-rule="evenodd"/><path stroke="#999999" stroke-width="2.0" stroke-linejoin="round" stroke-linecap="butt" d="m309.2966 149.29659l-205.85828 0" fill-rule="evenodd"/><path fill="#000000" fill-opacity="0.0" d="m103.438324 138.14034l0 21.291336" fill-rule="evenodd"/><path stroke="#999999" stroke-width="2.0" stroke-linejoin="round" stroke-linecap="butt" d="m103.438324 138.14034l0 21.291336" fill-rule="evenodd"/><path fill="#000000" fill-opacity="0.0" d="m626.74414 149.29659l216.75592 0" fill-rule="evenodd"/><path stroke="#999999" stroke-width="2.0" stroke-linejoin="round" stroke-linecap="butt" d="m626.74414 149.29659l216.75592 0" fill-rule="evenodd"/><path fill="#000000" fill-opacity="0.0" d="m467.5013 217.7559c0 10.358597 -1.3995056 18.755905 -3.1258545 18.755905l-175.92151 0c-1.7263794 0 -3.1258545 8.397308 -3.1258545 18.755905l0 0c0 -10.358597 -1.3995056 -18.755905 -3.1258545 -18.755905l-175.92152 0l0 0c-1.7263641 0 -3.1258621 -8.397308 -3.1258621 -18.755905z" fill-rule="evenodd"/><path fill="#000000" fill-opacity="0.0" d="m467.5013 217.7559c0 10.358597 -1.3995056 18.755905 -3.1258545 18.755905l-175.92151 0c-1.7263794 0 -3.1258545 8.397308 -3.1258545 18.755905l0 0c0 -10.358597 -1.3995056 -18.755905 -3.1258545 -18.755905l-175.92152 0l0 0c-1.7263641 0 -3.1258621 -8.397308 -3.1258621 -18.755905" fill-rule="evenodd"/><path stroke="#6fa8dc" stroke-width="2.0" stroke-linejoin="round" stroke-linecap="butt" d="m467.5013 217.7559c0 10.358597 -1.3995056 18.755905 -3.1258545 18.755905l-175.92151 0c-1.7263794 0 -3.1258545 8.397308 -3.1258545 18.755905l0 0c0 -10.358597 -1.3995056 -18.755905 -3.1258545 -18.755905l-175.92152 0l0 0c-1.7263641 0 -3.1258621 -8.397308 -3.1258621 -18.755905" fill-rule="evenodd"/><path fill="#000000" fill-opacity="0.0" d="m843.7218 217.7559c0 10.358597 -1.3995361 18.755905 -3.1258545 18.755905l-181.85852 0c-1.7263794 0 -3.1258545 8.397308 -3.1258545 18.755905l0 0c0 -10.358597 -1.3995361 -18.755905 -3.1258545 -18.755905l-181.85855 0l0 0c-1.7263489 0 -3.1258545 -8.397308 -3.1258545 -18.755905z" fill-rule="evenodd"/><path fill="#000000" fill-opacity="0.0" d="m843.7218 217.7559c0 10.358597 -1.3995361 18.755905 -3.1258545 18.755905l-181.85852 0c-1.7263794 0 -3.1258545 8.397308 -3.1258545 18.755905l0 0c0 -10.358597 -1.3995361 -18.755905 -3.1258545 -18.755905l-181.85855 0l0 0c-1.7263489 0 -3.1258545 -8.397308 -3.1258545 -18.755905" fill-rule="evenodd"/><path stroke="#e06666" stroke-width="2.0" stroke-linejoin="round" stroke-linecap="butt" d="m843.7218 217.7559c0 10.358597 -1.3995361 18.755905 -3.1258545 18.755905l-181.85852 0c-1.7263794 0 -3.1258545 8.397308 -3.1258545 18.755905l0 0c0 -10.358597 -1.3995361 -18.755905 -3.1258545 -18.755905l-181.85855 0l0 0c-1.7263489 0 -3.1258545 -8.397308 -3.1258545 -18.755905" fill-rule="evenodd"/><path fill="#e06666" d="m82.13911 149.29659l0 0c0 -2.72229 2.2068481 -4.929138 4.929138 -4.929138l0 0c1.3072815 0 2.5610275 0.5193176 3.4854202 1.4437103c0.9243927 0.9243927 1.4437103 2.1781464 1.4437103 3.4854279l0 0c0 2.72229 -2.2068481 4.929138 -4.9291306 4.929138l0 0c-2.72229 0 -4.929138 -2.2068481 -4.929138 -4.929138z" fill-rule="evenodd"/><path fill="#e06666" d="m58.139107 149.29659l0 0c0 -2.72229 2.2068481 -4.929138 4.9291344 -4.929138l0 0c1.3072853 0 2.5610313 0.5193176 3.485424 1.4437103c0.9243927 0.9243927 1.4437103 2.1781464 1.4437103 3.4854279l0 0c0 2.72229 -2.2068481 4.929138 -4.9291344 4.929138l0 0c-2.7222862 0 -4.9291344 -2.2068481 -4.9291344 -4.929138z" fill-rule="evenodd"/><path fill="#e06666" d="m878.98425 149.29659l0 0c0 -2.72229 2.2068481 -4.929138 4.929138 -4.929138l0 0c1.307312 0 2.5610352 0.5193176 3.4854126 1.4437103c0.92437744 0.9243927 1.4437256 2.1781464 1.4437256 3.4854279l0 0c0 2.72229 -2.2068481 4.929138 -4.929138 4.929138l0 0c-2.72229 0 -4.929138 -2.2068481 -4.929138 -4.929138z" fill-rule="evenodd"/><path fill="#e06666" d="m854.98425 149.29659l0 0c0 -2.72229 2.2068481 -4.929138 4.929138 -4.929138l0 0c1.307312 0 2.5610352 0.5193176 3.4854126 1.4437103c0.92437744 0.9243927 1.4437256 2.1781464 1.4437256 3.4854279l0 0c0 2.72229 -2.2068481 4.929138 -4.929138 4.929138l0 0c-2.72229 0 -4.929138 -2.2068481 -4.929138 -4.929138z" fill-rule="evenodd"/><path fill="#000000" fill-opacity="0.0" d="m843.4934 138.65215l0 21.291336" fill-rule="evenodd"/><path stroke="#999999" stroke-width="2.0" stroke-linejoin="round" stroke-linecap="butt" d="m843.4934 138.65215l0 21.291336" fill-rule="evenodd"/><path fill="#000000" fill-opacity="0.0" d="m28.076115 42.036747l69.98425 0l0 30.425198l-69.98425 0z" fill-rule="evenodd"/><path fill="#000000" d="m41.65424 63.91487q-1.390625 0 -2.1875 -0.359375q-0.796875 -0.375 -1.203125 -1.421875q-0.40625 -1.0625 -0.40625 -3.15625q0 -2.078125 0.421875 -3.15625q0.421875 -1.09375 1.21875 -1.484375q0.796875 -0.390625 2.15625 -0.390625q1.375 0 2.171875 0.390625q0.8125 0.375 1.203125 1.46875q0.40625 1.078125 0.40625 3.171875q0 2.09375 -0.40625 3.15625q-0.40625 1.046875 -1.203125 1.421875q-0.796875 0.359375 -2.171875 0.359375zm0 -0.9375q1.0625 0 1.625 -0.296875q0.5625 -0.296875 0.828125 -1.140625q0.265625 -0.859375 0.265625 -2.5625q0 -1.78125 -0.265625 -2.640625q-0.265625 -0.875 -0.828125 -1.15625q-0.5625 -0.28125 -1.625 -0.28125q-1.015625 0 -1.59375 0.28125q-0.578125 0.28125 -0.859375 1.171875q-0.28125 0.875 -0.28125 2.625q0 1.71875 0.25 2.5625q0.25 0.84375 0.8125 1.140625q0.578125 0.296875 1.671875 0.296875zm7.6899414 0.9375q-2.125 0 -2.125 -2.1875l0 -5.015625l1.046875 0l0 4.75q0 0.859375 0.375 1.1875q0.390625 0.328125 1.171875 0.328125q0.609375 0 1.125 -0.15625q0.515625 -0.171875 1.09375 -0.515625l0 -5.59375l1.046875 0l0 7.125l-0.828125 0l-0.21875 -0.78125q-1.359375 0.859375 -2.6875 0.859375zm8.086914 -0.078125q-1.0625 0 -1.5625 -0.53125q-0.484375 -0.546875 -0.453125 -1.78125l0.046875 -3.9375l-1.140625 0l0 -0.6875l1.140625 -0.1875l0.1875 -1.984375l0.8125 0l0 1.984375l2.046875 0l0 0.875l-2.046875 0l0 3.9375q0 0.8125 0.296875 1.125q0.3125 0.296875 0.78125 0.328125l0.859375 0.09375l0 0.765625l-0.96875 0zm4.391403 0.015625q-0.9375 0 -1.40625 -0.515625q-0.453125 -0.53125 -0.453125 -1.78125l0 -7.890625l1.046875 0l0 7.765625q0 0.875 0.234375 1.203125q0.25 0.3125 0.765625 0.375l0.71875 0.078125l0 0.765625l-0.90625 0zm2.2153358 -8.40625q-0.093753815 0 -0.15625381 -0.046875q-0.0625 -0.0625 -0.0625 -0.15625l0 -1.046875q0 -0.203125 0.21875381 -0.203125l0.75 0q0.203125 0 0.203125 0.203125l0 1.046875q0 0.203125 -0.203125 0.203125l-0.75 0zm-0.15625381 1.265625l1.0468788 0l0 7.125l-1.0468788 0l0 -7.125zm5.797535 7.203125q-1.15625 0 -1.796875 -0.328125q-0.625 -0.34375 -0.90625 -1.125q-0.265625 -0.78125 -0.265625 -2.203125q0 -1.421875 0.28125 -2.203125q0.28125 -0.796875 0.921875 -1.109375q0.640625 -0.3125 1.78125 -0.3125q0.96875 0 1.546875 0.21875q0.59375 0.203125 0.875 0.71875q0.28125 0.515625 0.28125 1.421875q0 0.90625 -0.53125 1.3125q-0.53125 0.40625 -1.5 0.40625l-2.609375 0q0.015625 0.90625 0.1875 1.40625q0.171875 0.5 0.640625 0.734375q0.46875 0.234375 1.34375 0.234375l2.296875 0l0 0.640625q-0.71875 0.09375 -1.28125 0.140625q-0.5625 0.046875 -1.265625 0.046875zm0.59375 -3.90625q0.609375 0 0.890625 -0.21875q0.28125 -0.234375 0.28125 -0.796875q0 -0.890625 -0.390625 -1.21875q-0.390625 -0.34375 -1.359375 -0.34375q-0.78125 0 -1.203125 0.234375q-0.40625 0.21875 -0.578125 0.765625q-0.171875 0.546875 -0.171875 1.578125l2.53125 0zm3.897995 -3.296875l0.796875 0l0.25 1.25q0.515625 -0.625 1.109375 -0.96875q0.609375 -0.359375 1.328125 -0.359375q0.359375 0 0.671875 0.078125l0 1.078125q-0.59375 -0.078125 -0.78125 -0.078125q-0.703125 0 -1.21875 0.265625q-0.5 0.25 -1.109375 0.8125l0 5.046875l-1.046875 0l0 -7.125zm7.94429 7.203125q-0.609375 0 -1.515625 -0.0625q-0.90625 -0.046875 -1.234375 -0.125l0 -0.640625l2.921875 0q0.75 0 1.09375 -0.1875q0.34375 -0.203125 0.34375 -0.84375l0 -0.328125q0 -1.0 -1.296875 -1.0l-1.0 0q-1.015625 0 -1.578125 -0.390625q-0.546875 -0.40625 -0.546875 -1.359375l0 -0.375q0 -1.015625 0.59375 -1.484375q0.59375 -0.46875 1.90625 -0.46875q0.578125 0 1.359375 0.0625q0.78125 0.0625 1.21875 0.140625l0 0.640625l-2.75 0q-0.71875 0 -1.0625 0.25q-0.34375 0.234375 -0.34375 0.859375l0 0.296875q0 0.5625 0.328125 0.765625q0.34375 0.1875 1.046875 0.1875l1.015625 0q0.96875 0 1.5 0.453125q0.546875 0.453125 0.546875 1.3125l0 0.484375q0 1.015625 -0.65625 1.421875q-0.65625 0.390625 -1.890625 0.390625z" fill-rule="nonzero"/><path fill="#000000" fill-opacity="0.0" d="m63.06824 72.461945l0 71.9055" fill-rule="evenodd"/><path stroke="#000000" stroke-width="1.0" stroke-linejoin="round" stroke-linecap="butt" d="m63.06824 72.461945l0 65.9055" fill-rule="evenodd"/><path fill="#000000" stroke="#000000" stroke-width="1.0" stroke-linecap="butt" d="m61.416508 138.36745l1.6517334 4.538101l1.6517296 -4.538101z" fill-rule="evenodd"/><path fill="#000000" fill-opacity="0.0" d="m62.47436 72.461945l82.64566 0l0 30.425194l-82.64566 0z" fill-rule="evenodd"/><path fill="#000000" d="m72.48999 87.13694l0.828125 0l0.21875 0.796875q1.34375 -0.90625 2.671875 -0.90625q0.640625 0 1.109375 0.296875q0.46875 0.28125 0.734375 0.75q0.5625 -0.40625 1.359375 -0.71875q0.8125 -0.328125 1.515625 -0.328125q1.109375 0 1.65625 0.6875q0.5625 0.671875 0.5625 1.75l0 4.796875l-1.046875 0l0 -4.71875q0 -0.6875 -0.40625 -1.125q-0.40625 -0.4375 -1.109375 -0.4375q-0.5625 0 -1.1875 0.21875q-0.625 0.21875 -1.1875 0.5625q0.125 0.421875 0.125 0.796875l0 4.703125l-1.046875 0l0 -4.71875q0 -0.6875 -0.390625 -1.125q-0.390625 -0.4375 -1.09375 -0.4375q-0.640625 0 -1.140625 0.171875q-0.5 0.171875 -1.125 0.53125l0 5.578125l-1.046875 0l0 -7.125zm12.79126 -1.265625q-0.09375 0 -0.15625 -0.046875q-0.0625 -0.0625 -0.0625 -0.15625l0 -1.046875q0 -0.203125 0.21875 -0.203125l0.75 0q0.203125 0 0.203125 0.203125l0 1.046875q0 0.203125 -0.203125 0.203125l-0.75 0zm-0.15625 1.265625l1.046875 0l0 7.125l-1.046875 0l0 -7.125zm3.0787811 0l0.828125 0l0.21875 0.796875q0.5625 -0.390625 1.234375 -0.640625q0.6875 -0.265625 1.375 -0.265625q1.09375 0 1.640625 0.6875q0.546875 0.671875 0.546875 1.703125l0 4.84375l-1.046875 0l0 -4.71875q0 -0.6875 -0.390625 -1.125q-0.390625 -0.4375 -1.09375 -0.4375q-0.640625 0 -1.140625 0.171875q-0.5 0.171875 -1.125 0.53125l0 5.578125l-1.046875 0l0 -7.125zm7.993164 -1.265625q-0.09375 0 -0.15625 -0.046875q-0.0625 -0.0625 -0.0625 -0.15625l0 -1.046875q0 -0.203125 0.21875 -0.203125l0.75 0q0.203125 0 0.203125 0.203125l0 1.046875q0 0.203125 -0.203125 0.203125l-0.75 0zm-0.15625 1.265625l1.046875 0l0 7.125l-1.046875 0l0 -7.125zm3.0787811 0l0.828125 0l0.21875 0.796875q1.34375 -0.90625 2.671875 -0.90625q0.640625 0 1.109375 0.296875q0.46875 0.28125 0.734375 0.75q0.5625 -0.40625 1.359375 -0.71875q0.8125 -0.328125 1.515625 -0.328125q1.109375 0 1.65625 0.6875q0.5625 0.671875 0.5625 1.75l0 4.796875l-1.046875 0l0 -4.71875q0 -0.6875 -0.40625 -1.125q-0.40625 -0.4375 -1.109375 -0.4375q-0.5625 0 -1.1875 0.21875q-0.625 0.21875 -1.1875 0.5625q0.125 0.421875 0.125 0.796875l0 4.703125l-1.046875 0l0 -4.71875q0 -0.6875 -0.390625 -1.125q-0.390625 -0.4375 -1.09375 -0.4375q-0.640625 0 -1.140625 0.171875q-0.5 0.171875 -1.125 0.53125l0 5.578125l-1.046875 0l0 -7.125zm14.744385 7.203125q-2.125 0 -2.125 -2.1875l0 -5.015625l1.046875 0l0 4.75q0 0.859375 0.375 1.1875q0.390625 0.328125 1.171875 0.328125q0.609375 0 1.125 -0.15625q0.515625 -0.171875 1.09375 -0.515625l0 -5.59375l1.046875 0l0 7.125l-0.828125 0l-0.21875 -0.78125q-1.359375 0.859375 -2.6875 0.859375zm5.727539 -7.203125l0.828125 0l0.21875 0.796875q1.34375 -0.90625 2.671875 -0.90625q0.640625 0 1.109375 0.296875q0.46875 0.28125 0.734375 0.75q0.5625 -0.40625 1.359375 -0.71875q0.8125 -0.328125 1.515625 -0.328125q1.109375 0 1.65625 0.6875q0.5625 0.671875 0.5625 1.75l0 4.796875l-1.046875 0l0 -4.71875q0 -0.6875 -0.40625 -1.125q-0.40625 -0.4375 -1.109375 -0.4375q-0.5625 0 -1.1875 0.21875q-0.625 0.21875 -1.1875 0.5625q0.125 0.421875 0.125 0.796875l0 4.703125l-1.046875 0l0 -4.71875q0 -0.6875 -0.390625 -1.125q-0.390625 -0.4375 -1.09375 -0.4375q-0.640625 0 -1.140625 0.171875q-0.5 0.171875 -1.125 0.53125l0 5.578125l-1.046875 0l0 -7.125z" fill-rule="nonzero"/><path fill="#000000" fill-opacity="0.0" d="m103.797195 102.88714l-0.3464508 35.244102" fill-rule="evenodd"/><path stroke="#000000" stroke-width="1.0" stroke-linejoin="round" stroke-linecap="butt" d="m103.797195 102.88714l-0.2874756 29.244377" fill-rule="evenodd"/><path fill="#000000" stroke="#000000" stroke-width="1.0" stroke-linecap="butt" d="m101.85806 132.11528l1.6070404 4.554123l1.6962662 -4.521637z" fill-rule="evenodd"/><path fill="#000000" fill-opacity="0.0" d="m156.20998 269.979l258.2362 0l0 37.51181l-258.2362 0z" fill-rule="evenodd"/><path fill="#000000" d="m173.31384 283.5396l2.734375 0l-1.5 7.25l-0.375 1.796875q-0.046875 0.21875 -0.046875 0.421875q0 0.796875 0.578125 1.3125q0.578125 0.515625 1.6875 0.515625q1.0 0 1.640625 -0.375q0.640625 -0.375 1.0 -1.109375q0.359375 -0.75 0.71875 -2.515625l1.53125 -7.296875l2.75 0l-1.53125 7.3125q-0.484375 2.296875 -1.109375 3.53125q-0.625 1.21875 -1.90625 1.984375q-1.265625 0.765625 -3.21875 0.765625q-2.328125 0 -3.578125 -1.140625q-1.234375 -1.15625 -1.234375 -2.953125q0 -0.375 0.0625 -0.8125q0.03125 -0.28125 0.328125 -1.65625l1.46875 -7.03125zm12.722946 3.6875l2.46875 0l-0.25 1.25q0.921875 -0.796875 1.71875 -1.140625q0.8125 -0.34375 1.71875 -0.34375q1.1875 0 1.875 0.6875q0.6875 0.6875 0.6875 1.8125q0 0.515625 -0.296875 1.9375l-1.140625 5.46875l-2.609375 0l1.140625 -5.5q0.25 -1.21875 0.25 -1.453125q0 -0.5 -0.296875 -0.78125q-0.296875 -0.296875 -0.8125 -0.296875q-0.578125 0 -1.28125 0.484375q-0.703125 0.484375 -1.109375 1.265625q-0.28125 0.5625 -0.640625 2.3125l-0.84375 3.96875l-2.609375 0l2.03125 -9.671875zm12.114731 -3.6875l2.625 0l-0.5 2.375l-2.609375 0l0.484375 -2.375zm-0.765625 3.6875l2.625 0l-2.03125 9.671875l-2.609375 0l2.015625 -9.671875zm9.902054 0l-0.390625 1.90625l-1.859375 0l-1.625 7.765625l-2.609375 0l1.625 -7.765625l-1.453125 0l0.390625 -1.90625l1.46875 0l0.203125 -1.0q0.25 -1.21875 0.484375 -1.640625q0.3125 -0.59375 0.921875 -0.921875q0.609375 -0.34375 1.609375 -0.34375q1.203125 0 2.53125 0.4375l-0.515625 1.859375q-0.9375 -0.3125 -1.515625 -0.3125q-0.453125 0 -0.671875 0.28125q-0.140625 0.1875 -0.296875 0.953125l-0.140625 0.6875l1.84375 0zm-0.146698 5.65625q0 -2.6875 1.515625 -4.28125q1.515625 -1.609375 3.984375 -1.609375q2.140625 0 3.34375 1.1875q1.203125 1.171875 1.203125 3.171875q0 2.34375 -1.5 4.0625q-1.5 1.71875 -4.03125 1.71875q-1.359375 0 -2.421875 -0.546875q-1.046875 -0.546875 -1.578125 -1.546875q-0.515625 -1.015625 -0.515625 -2.15625zm7.453125 -1.875q0 -0.921875 -0.546875 -1.484375q-0.53125 -0.5625 -1.390625 -0.5625q-0.84375 0 -1.5 0.53125q-0.65625 0.515625 -1.03125 1.515625q-0.359375 1.0 -0.359375 1.84375q0 1.03125 0.5625 1.640625q0.5625 0.609375 1.421875 0.609375q1.078125 0 1.8125 -0.921875q1.03125 -1.296875 1.03125 -3.171875zm5.442856 -3.78125l2.4375 0l-0.390625 1.875q1.375 -2.109375 2.96875 -2.109375q0.5625 0 1.203125 0.28125l-1.0 2.140625q-0.359375 -0.125 -0.75 -0.125q-0.6875 0 -1.390625 0.515625q-0.6875 0.5 -1.078125 1.359375q-0.390625 0.859375 -0.765625 2.703125l-0.640625 3.03125l-2.625 0l2.03125 -9.671875zm7.322769 0l2.453125 0l-0.234375 1.171875q1.4375 -1.40625 3.015625 -1.40625q1.09375 0 1.6875 0.46875q0.59375 0.453125 0.75 1.25q0.515625 -0.734375 1.453125 -1.21875q0.9375 -0.5 1.9375 -0.5q1.15625 0 1.796875 0.625q0.65625 0.625 0.65625 1.640625q0 0.5 -0.25 1.734375l-1.234375 5.90625l-2.625 0l1.25 -5.90625q0.21875 -1.109375 0.21875 -1.265625q0 -0.390625 -0.25 -0.625q-0.234375 -0.234375 -0.71875 -0.234375q-0.96875 0 -1.734375 1.03125q-0.5625 0.734375 -0.953125 2.609375l-0.921875 4.390625l-2.609375 0l1.21875 -5.84375q0.21875 -1.015625 0.21875 -1.3125q0 -0.390625 -0.265625 -0.625q-0.265625 -0.25 -0.71875 -0.25q-0.421875 0 -0.875 0.25q-0.453125 0.25 -0.796875 0.703125q-0.34375 0.453125 -0.59375 1.140625q-0.109375 0.328125 -0.359375 1.484375l-0.921875 4.453125l-2.609375 0l2.015625 -9.671875z" fill-rule="nonzero"/><path fill="#000000" d="m245.62027 300.82086q-1.359375 -1.703125 -2.296875 -4.0q-0.9375 -2.296875 -0.9375 -4.765625q0 -2.15625 0.703125 -4.140625q0.828125 -2.3125 2.53125 -4.59375l1.171875 0q-1.09375 1.890625 -1.453125 2.703125q-0.546875 1.25 -0.875 2.625q-0.390625 1.703125 -0.390625 3.421875q0 4.375 2.71875 8.75l-1.171875 0zm3.087677 -3.921875l0 -9.671875l1.46875 0l0 1.359375q0.453125 -0.71875 1.203125 -1.140625q0.765625 -0.4375 1.71875 -0.4375q1.078125 0 1.765625 0.453125q0.6875 0.4375 0.96875 1.234375q1.15625 -1.6875 2.984375 -1.6875q1.453125 0 2.21875 0.796875q0.78125 0.796875 0.78125 2.453125l0 6.640625l-1.640625 0l0 -6.09375q0 -0.984375 -0.15625 -1.40625q-0.15625 -0.4375 -0.578125 -0.703125q-0.421875 -0.265625 -0.984375 -0.265625q-1.015625 0 -1.6875 0.6875q-0.671875 0.671875 -0.671875 2.15625l0 5.625l-1.640625 0l0 -6.28125q0 -1.09375 -0.40625 -1.640625q-0.40625 -0.546875 -1.3125 -0.546875q-0.6875 0 -1.28125 0.359375q-0.59375 0.359375 -0.859375 1.0625q-0.25 0.703125 -0.25 2.03125l0 5.015625l-1.640625 0zm15.540802 -11.46875l0 -1.890625l1.640625 0l0 1.890625l-1.640625 0zm0 11.46875l0 -9.671875l1.640625 0l0 9.671875l-1.640625 0zm4.144806 0l0 -9.671875l1.46875 0l0 1.375q1.0625 -1.59375 3.078125 -1.59375q0.875 0 1.609375 0.3125q0.734375 0.3125 1.09375 0.828125q0.375 0.5 0.515625 1.203125q0.09375 0.453125 0.09375 1.59375l0 5.953125l-1.640625 0l0 -5.890625q0 -1.0 -0.203125 -1.484375q-0.1875 -0.5 -0.671875 -0.796875q-0.484375 -0.296875 -1.140625 -0.296875q-1.046875 0 -1.8125 0.671875q-0.75 0.65625 -0.75 2.515625l0 5.28125l-1.640625 0zm10.375732 -11.46875l0 -1.890625l1.640625 0l0 1.890625l-1.640625 0zm0 11.46875l0 -9.671875l1.640625 0l0 9.671875l-1.640625 0zm4.144806 0l0 -9.671875l1.46875 0l0 1.359375q0.453125 -0.71875 1.203125 -1.140625q0.765625 -0.4375 1.71875 -0.4375q1.078125 0 1.765625 0.453125q0.6875 0.4375 0.96875 1.234375q1.15625 -1.6875 2.984375 -1.6875q1.453125 0 2.21875 0.796875q0.78125 0.796875 0.78125 2.453125l0 6.640625l-1.640625 0l0 -6.09375q0 -0.984375 -0.15625 -1.40625q-0.15625 -0.4375 -0.578125 -0.703125q-0.421875 -0.265625 -0.984375 -0.265625q-1.015625 0 -1.6875 0.6875q-0.671875 0.671875 -0.671875 2.15625l0 5.625l-1.640625 0l0 -6.28125q0 -1.09375 -0.40625 -1.640625q-0.40625 -0.546875 -1.3125 -0.546875q-0.6875 0 -1.28125 0.359375q-0.59375 0.359375 -0.859375 1.0625q-0.25 0.703125 -0.25 2.03125l0 5.015625l-1.640625 0zm21.868927 0l0 -1.421875q-1.125 1.640625 -3.0625 1.640625q-0.859375 0 -1.609375 -0.328125q-0.734375 -0.328125 -1.09375 -0.828125q-0.359375 -0.5 -0.5 -1.21875q-0.109375 -0.46875 -0.109375 -1.53125l0 -5.984375l1.640625 0l0 5.359375q0 1.28125 0.109375 1.734375q0.15625 0.640625 0.65625 1.015625q0.5 0.375 1.234375 0.375q0.734375 0 1.375 -0.375q0.65625 -0.390625 0.921875 -1.03125q0.265625 -0.65625 0.265625 -1.890625l0 -5.1875l1.640625 0l0 9.671875l-1.46875 0zm4.0476074 0l0 -9.671875l1.46875 0l0 1.359375q0.453125 -0.71875 1.203125 -1.140625q0.765625 -0.4375 1.71875 -0.4375q1.078125 0 1.765625 0.453125q0.6875 0.4375 0.96875 1.234375q1.15625 -1.6875 2.984375 -1.6875q1.453125 0 2.21875 0.796875q0.78125 0.796875 0.78125 2.453125l0 6.640625l-1.640625 0l0 -6.09375q0 -0.984375 -0.15625 -1.40625q-0.15625 -0.4375 -0.578125 -0.703125q-0.421875 -0.265625 -0.984375 -0.265625q-1.015625 0 -1.6875 0.6875q-0.671875 0.671875 -0.671875 2.15625l0 5.625l-1.640625 0l0 -6.28125q0 -1.09375 -0.40625 -1.640625q-0.40625 -0.546875 -1.3125 -0.546875q-0.6875 0 -1.28125 0.359375q-0.59375 0.359375 -0.859375 1.0625q-0.25 0.703125 -0.25 2.03125l0 5.015625l-1.640625 0zm15.962677 0l0 -1.875l1.875 0l0 1.875q0 1.03125 -0.375 1.65625q-0.359375 0.640625 -1.15625 0.984375l-0.453125 -0.703125q0.515625 -0.21875 0.765625 -0.671875q0.25 -0.4375 0.28125 -1.265625l-0.9375 0zm9.944733 0l0 -9.671875l1.46875 0l0 1.359375q0.453125 -0.71875 1.203125 -1.140625q0.765625 -0.4375 1.71875 -0.4375q1.078125 0 1.765625 0.453125q0.6875 0.4375 0.96875 1.234375q1.15625 -1.6875 2.984375 -1.6875q1.453125 0 2.21875 0.796875q0.78125 0.796875 0.78125 2.453125l0 6.640625l-1.640625 0l0 -6.09375q0 -0.984375 -0.15625 -1.40625q-0.15625 -0.4375 -0.578125 -0.703125q-0.421875 -0.265625 -0.984375 -0.265625q-1.015625 0 -1.6875 0.6875q-0.671875 0.671875 -0.671875 2.15625l0 5.625l-1.640625 0l0 -6.28125q0 -1.09375 -0.40625 -1.640625q-0.40625 -0.546875 -1.3125 -0.546875q-0.6875 0 -1.28125 0.359375q-0.59375 0.359375 -0.859375 1.0625q-0.25 0.703125 -0.25 2.03125l0 5.015625l-1.640625 0zm22.165802 -3.109375l1.6875 0.203125q-0.40625 1.484375 -1.484375 2.3125q-1.078125 0.8125 -2.765625 0.8125q-2.125 0 -3.375 -1.296875q-1.234375 -1.3125 -1.234375 -3.671875q0 -2.453125 1.25 -3.796875q1.265625 -1.34375 3.265625 -1.34375q1.9375 0 3.15625 1.328125q1.234375 1.3125 1.234375 3.703125q0 0.15625 0 0.4375l-7.21875 0q0.09375 1.59375 0.90625 2.453125q0.8125 0.84375 2.015625 0.84375q0.90625 0 1.546875 -0.46875q0.640625 -0.484375 1.015625 -1.515625zm-5.390625 -2.65625l5.40625 0q-0.109375 -1.21875 -0.625 -1.828125q-0.78125 -0.953125 -2.03125 -0.953125q-1.125 0 -1.90625 0.765625q-0.765625 0.75 -0.84375 2.015625zm15.406952 5.765625l0 -1.21875q-0.90625 1.4375 -2.703125 1.4375q-1.15625 0 -2.125 -0.640625q-0.96875 -0.640625 -1.5 -1.78125q-0.53125 -1.140625 -0.53125 -2.625q0 -1.453125 0.484375 -2.625q0.484375 -1.1875 1.4375 -1.8125q0.96875 -0.625 2.171875 -0.625q0.875 0 1.546875 0.375q0.6875 0.359375 1.109375 0.953125l0 -4.796875l1.640625 0l0 13.359375l-1.53125 0zm-5.171875 -4.828125q0 1.859375 0.78125 2.78125q0.78125 0.921875 1.84375 0.921875q1.078125 0 1.828125 -0.875q0.75 -0.890625 0.75 -2.6875q0 -1.984375 -0.765625 -2.90625q-0.765625 -0.9375 -1.890625 -0.9375q-1.078125 0 -1.8125 0.890625q-0.734375 0.890625 -0.734375 2.8125zm9.281982 -6.640625l0 -1.890625l1.640625 0l0 1.890625l-1.640625 0zm0 11.46875l0 -9.671875l1.640625 0l0 9.671875l-1.640625 0zm10.457306 -1.1875q-0.921875 0.765625 -1.765625 1.09375q-0.828125 0.3125 -1.796875 0.3125q-1.59375 0 -2.453125 -0.78125q-0.859375 -0.78125 -0.859375 -1.984375q0 -0.71875 0.328125 -1.296875q0.328125 -0.59375 0.84375 -0.9375q0.53125 -0.359375 1.1875 -0.546875q0.46875 -0.125 1.453125 -0.25q1.984375 -0.234375 2.921875 -0.5625q0.015625 -0.34375 0.015625 -0.421875q0 -1.0 -0.46875 -1.421875q-0.625 -0.546875 -1.875 -0.546875q-1.15625 0 -1.703125 0.40625q-0.546875 0.40625 -0.8125 1.421875l-1.609375 -0.21875q0.21875 -1.015625 0.71875 -1.640625q0.5 -0.640625 1.453125 -0.984375q0.953125 -0.34375 2.1875 -0.34375q1.25 0 2.015625 0.296875q0.78125 0.28125 1.140625 0.734375q0.375 0.4375 0.515625 1.109375q0.078125 0.421875 0.078125 1.515625l0 2.1875q0 2.28125 0.109375 2.890625q0.109375 0.59375 0.40625 1.15625l-1.703125 0q-0.265625 -0.515625 -0.328125 -1.1875zm-0.140625 -3.671875q-0.890625 0.375 -2.671875 0.625q-1.015625 0.140625 -1.4375 0.328125q-0.421875 0.1875 -0.65625 0.53125q-0.21875 0.34375 -0.21875 0.78125q0 0.65625 0.5 1.09375q0.5 0.4375 1.453125 0.4375q0.9375 0 1.671875 -0.40625q0.75 -0.421875 1.09375 -1.140625q0.265625 -0.5625 0.265625 -1.640625l0 -0.609375zm4.2038574 4.859375l0 -9.671875l1.46875 0l0 1.375q1.0625 -1.59375 3.078125 -1.59375q0.875 0 1.609375 0.3125q0.734375 0.3125 1.09375 0.828125q0.375 0.5 0.515625 1.203125q0.09375 0.453125 0.09375 1.59375l0 5.953125l-1.640625 0l0 -5.890625q0 -1.0 -0.203125 -1.484375q-0.1875 -0.5 -0.671875 -0.796875q-0.484375 -0.296875 -1.140625 -0.296875q-1.046875 0 -1.8125 0.671875q-0.75 0.65625 -0.75 2.515625l0 5.28125l-1.640625 0zm11.453827 3.921875l-1.1875 0q2.734375 -4.375 2.734375 -8.75q0 -1.71875 -0.390625 -3.390625q-0.3125 -1.375 -0.875 -2.625q-0.359375 -0.828125 -1.46875 -2.734375l1.1875 0q1.703125 2.28125 2.53125 4.59375q0.6875 1.984375 0.6875 4.140625q0 2.46875 -0.9375 4.765625q-0.9375 2.296875 -2.28125 4.0z" fill-rule="nonzero"/><path fill="#000000" fill-opacity="0.0" d="m526.4934 269.979l258.23627 0l0 37.51181l-258.23627 0z" fill-rule="evenodd"/><path fill="#000000" d="m541.0057 283.5396l2.734375 0l-1.5 7.25l-0.375 1.796875q-0.046875 0.21875 -0.046875 0.421875q0 0.796875 0.578125 1.3125q0.578125 0.515625 1.6875 0.515625q1.0 0 1.640625 -0.375q0.640625 -0.375 1.0 -1.109375q0.359375 -0.75 0.71875 -2.515625l1.53125 -7.296875l2.75 0l-1.53125 7.3125q-0.484375 2.296875 -1.109375 3.53125q-0.625 1.21875 -1.90625 1.984375q-1.265625 0.765625 -3.21875 0.765625q-2.328125 0 -3.578125 -1.140625q-1.234375 -1.15625 -1.234375 -2.953125q0 -0.375 0.0625 -0.8125q0.03125 -0.28125 0.328125 -1.65625l1.46875 -7.03125zm12.7229 3.6875l2.46875 0l-0.25 1.25q0.921875 -0.796875 1.71875 -1.140625q0.8125 -0.34375 1.71875 -0.34375q1.1875 0 1.875 0.6875q0.6875 0.6875 0.6875 1.8125q0 0.515625 -0.296875 1.9375l-1.140625 5.46875l-2.609375 0l1.140625 -5.5q0.25 -1.21875 0.25 -1.453125q0 -0.5 -0.296875 -0.78125q-0.296875 -0.296875 -0.8125 -0.296875q-0.578125 0 -1.28125 0.484375q-0.703125 0.484375 -1.109375 1.265625q-0.28125 0.5625 -0.640625 2.3125l-0.84375 3.96875l-2.609375 0l2.03125 -9.671875zm12.114746 -3.6875l2.625 0l-0.5 2.375l-2.609375 0l0.484375 -2.375zm-0.765625 3.6875l2.625 0l-2.03125 9.671875l-2.609375 0l2.015625 -9.671875zm9.902039 0l-0.390625 1.90625l-1.859375 0l-1.625 7.765625l-2.609375 0l1.625 -7.765625l-1.453125 0l0.390625 -1.90625l1.46875 0l0.203125 -1.0q0.25 -1.21875 0.484375 -1.640625q0.3125 -0.59375 0.921875 -0.921875q0.609375 -0.34375 1.609375 -0.34375q1.203125 0 2.53125 0.4375l-0.515625 1.859375q-0.9375 -0.3125 -1.515625 -0.3125q-0.453125 0 -0.671875 0.28125q-0.140625 0.1875 -0.296875 0.953125l-0.140625 0.6875l1.84375 0zm-0.14666748 5.65625q0 -2.6875 1.515625 -4.28125q1.515625 -1.609375 3.984375 -1.609375q2.140625 0 3.34375 1.1875q1.203125 1.171875 1.203125 3.171875q0 2.34375 -1.5 4.0625q-1.5 1.71875 -4.03125 1.71875q-1.359375 0 -2.421875 -0.546875q-1.046875 -0.546875 -1.578125 -1.546875q-0.515625 -1.015625 -0.515625 -2.15625zm7.453125 -1.875q0 -0.921875 -0.546875 -1.484375q-0.53125 -0.5625 -1.390625 -0.5625q-0.84375 0 -1.5 0.53125q-0.65625 0.515625 -1.03125 1.515625q-0.359375 1.0 -0.359375 1.84375q0 1.03125 0.5625 1.640625q0.5625 0.609375 1.421875 0.609375q1.078125 0 1.8125 -0.921875q1.03125 -1.296875 1.03125 -3.171875zm5.442871 -3.78125l2.4375 0l-0.390625 1.875q1.375 -2.109375 2.96875 -2.109375q0.5625 0 1.203125 0.28125l-1.0 2.140625q-0.359375 -0.125 -0.75 -0.125q-0.6875 0 -1.390625 0.515625q-0.6875 0.5 -1.078125 1.359375q-0.390625 0.859375 -0.765625 2.703125l-0.640625 3.03125l-2.625 0l2.03125 -9.671875zm7.322754 0l2.453125 0l-0.234375 1.171875q1.4375 -1.40625 3.015625 -1.40625q1.09375 0 1.6875 0.46875q0.59375 0.453125 0.75 1.25q0.515625 -0.734375 1.453125 -1.21875q0.9375 -0.5 1.9375 -0.5q1.15625 0 1.796875 0.625q0.65625 0.625 0.65625 1.640625q0 0.5 -0.25 1.734375l-1.234375 5.90625l-2.625 0l1.25 -5.90625q0.21875 -1.109375 0.21875 -1.265625q0 -0.390625 -0.25 -0.625q-0.234375 -0.234375 -0.71875 -0.234375q-0.96875 0 -1.734375 1.03125q-0.5625 0.734375 -0.953125 2.609375l-0.921875 4.390625l-2.609375 0l1.21875 -5.84375q0.21875 -1.015625 0.21875 -1.3125q0 -0.390625 -0.265625 -0.625q-0.265625 -0.25 -0.71875 -0.25q-0.421875 0 -0.875 0.25q-0.453125 0.25 -0.796875 0.703125q-0.34375 0.453125 -0.59375 1.140625q-0.109375 0.328125 -0.359375 1.484375l-0.921875 4.453125l-2.609375 0l2.015625 -9.671875z" fill-rule="nonzero"/><path fill="#000000" d="m613.3121 300.82086q-1.359375 -1.703125 -2.296875 -4.0q-0.9375 -2.296875 -0.9375 -4.765625q0 -2.15625 0.703125 -4.140625q0.828125 -2.3125 2.53125 -4.59375l1.171875 0q-1.09375 1.890625 -1.453125 2.703125q-0.546875 1.25 -0.875 2.625q-0.390625 1.703125 -0.390625 3.421875q0 4.375 2.71875 8.75l-1.171875 0zm3.0877075 -3.921875l0 -9.671875l1.46875 0l0 1.359375q0.453125 -0.71875 1.203125 -1.140625q0.765625 -0.4375 1.71875 -0.4375q1.078125 0 1.765625 0.453125q0.6875 0.4375 0.96875 1.234375q1.15625 -1.6875 2.984375 -1.6875q1.453125 0 2.21875 0.796875q0.78125 0.796875 0.78125 2.453125l0 6.640625l-1.640625 0l0 -6.09375q0 -0.984375 -0.15625 -1.40625q-0.15625 -0.4375 -0.578125 -0.703125q-0.421875 -0.265625 -0.984375 -0.265625q-1.015625 0 -1.6875 0.6875q-0.671875 0.671875 -0.671875 2.15625l0 5.625l-1.640625 0l0 -6.28125q0 -1.09375 -0.40625 -1.640625q-0.40625 -0.546875 -1.3125 -0.546875q-0.6875 0 -1.28125 0.359375q-0.59375 0.359375 -0.859375 1.0625q-0.25 0.703125 -0.25 2.03125l0 5.015625l-1.640625 0zm22.165771 -3.109375l1.6875 0.203125q-0.40625 1.484375 -1.484375 2.3125q-1.078125 0.8125 -2.765625 0.8125q-2.125 0 -3.375 -1.296875q-1.234375 -1.3125 -1.234375 -3.671875q0 -2.453125 1.25 -3.796875q1.265625 -1.34375 3.265625 -1.34375q1.9375 0 3.15625 1.328125q1.234375 1.3125 1.234375 3.703125q0 0.15625 0 0.4375l-7.21875 0q0.09375 1.59375 0.90625 2.453125q0.8125 0.84375 2.015625 0.84375q0.90625 0 1.546875 -0.46875q0.640625 -0.484375 1.015625 -1.515625zm-5.390625 -2.65625l5.40625 0q-0.109375 -1.21875 -0.625 -1.828125q-0.78125 -0.953125 -2.03125 -0.953125q-1.125 0 -1.90625 0.765625q-0.765625 0.75 -0.84375 2.015625zm15.406982 5.765625l0 -1.21875q-0.90625 1.4375 -2.703125 1.4375q-1.15625 0 -2.125 -0.640625q-0.96875 -0.640625 -1.5 -1.78125q-0.53125 -1.140625 -0.53125 -2.625q0 -1.453125 0.484375 -2.625q0.484375 -1.1875 1.4375 -1.8125q0.96875 -0.625 2.171875 -0.625q0.875 0 1.546875 0.375q0.6875 0.359375 1.109375 0.953125l0 -4.796875l1.640625 0l0 13.359375l-1.53125 0zm-5.171875 -4.828125q0 1.859375 0.78125 2.78125q0.78125 0.921875 1.84375 0.921875q1.078125 0 1.828125 -0.875q0.75 -0.890625 0.75 -2.6875q0 -1.984375 -0.765625 -2.90625q-0.765625 -0.9375 -1.890625 -0.9375q-1.078125 0 -1.8125 0.890625q-0.734375 0.890625 -0.734375 2.8125zm9.281982 -6.640625l0 -1.890625l1.640625 0l0 1.890625l-1.640625 0zm0 11.46875l0 -9.671875l1.640625 0l0 9.671875l-1.640625 0zm10.457275 -1.1875q-0.921875 0.765625 -1.765625 1.09375q-0.828125 0.3125 -1.796875 0.3125q-1.59375 0 -2.453125 -0.78125q-0.859375 -0.78125 -0.859375 -1.984375q0 -0.71875 0.328125 -1.296875q0.328125 -0.59375 0.84375 -0.9375q0.53125 -0.359375 1.1875 -0.546875q0.46875 -0.125 1.453125 -0.25q1.984375 -0.234375 2.921875 -0.5625q0.015625 -0.34375 0.015625 -0.421875q0 -1.0 -0.46875 -1.421875q-0.625 -0.546875 -1.875 -0.546875q-1.15625 0 -1.703125 0.40625q-0.546875 0.40625 -0.8125 1.421875l-1.609375 -0.21875q0.21875 -1.015625 0.71875 -1.640625q0.5 -0.640625 1.453125 -0.984375q0.953125 -0.34375 2.1875 -0.34375q1.25 0 2.015625 0.296875q0.78125 0.28125 1.140625 0.734375q0.375 0.4375 0.515625 1.109375q0.078125 0.421875 0.078125 1.515625l0 2.1875q0 2.28125 0.109375 2.890625q0.109375 0.59375 0.40625 1.15625l-1.703125 0q-0.265625 -0.515625 -0.328125 -1.1875zm-0.140625 -3.671875q-0.890625 0.375 -2.671875 0.625q-1.015625 0.140625 -1.4375 0.328125q-0.421875 0.1875 -0.65625 0.53125q-0.21875 0.34375 -0.21875 0.78125q0 0.65625 0.5 1.09375q0.5 0.4375 1.453125 0.4375q0.9375 0 1.671875 -0.40625q0.75 -0.421875 1.09375 -1.140625q0.265625 -0.5625 0.265625 -1.640625l0 -0.609375zm4.2038574 4.859375l0 -9.671875l1.46875 0l0 1.375q1.0625 -1.59375 3.078125 -1.59375q0.875 0 1.609375 0.3125q0.734375 0.3125 1.09375 0.828125q0.375 0.5 0.515625 1.203125q0.09375 0.453125 0.09375 1.59375l0 5.953125l-1.640625 0l0 -5.890625q0 -1.0 -0.203125 -1.484375q-0.1875 -0.5 -0.671875 -0.796875q-0.484375 -0.296875 -1.140625 -0.296875q-1.046875 0 -1.8125 0.671875q-0.75 0.65625 -0.75 2.515625l0 5.28125l-1.640625 0zm10.797607 0l0 -1.875l1.875 0l0 1.875q0 1.03125 -0.375 1.65625q-0.359375 0.640625 -1.15625 0.984375l-0.453125 -0.703125q0.515625 -0.21875 0.765625 -0.671875q0.25 -0.4375 0.28125 -1.265625l-0.9375 0zm9.944702 0l0 -9.671875l1.46875 0l0 1.359375q0.453125 -0.71875 1.203125 -1.140625q0.765625 -0.4375 1.71875 -0.4375q1.078125 0 1.765625 0.453125q0.6875 0.4375 0.96875 1.234375q1.15625 -1.6875 2.984375 -1.6875q1.453125 0 2.21875 0.796875q0.78125 0.796875 0.78125 2.453125l0 6.640625l-1.640625 0l0 -6.09375q0 -0.984375 -0.15625 -1.40625q-0.15625 -0.4375 -0.578125 -0.703125q-0.421875 -0.265625 -0.984375 -0.265625q-1.015625 0 -1.6875 0.6875q-0.671875 0.671875 -0.671875 2.15625l0 5.625l-1.640625 0l0 -6.28125q0 -1.09375 -0.40625 -1.640625q-0.40625 -0.546875 -1.3125 -0.546875q-0.6875 0 -1.28125 0.359375q-0.59375 0.359375 -0.859375 1.0625q-0.25 0.703125 -0.25 2.03125l0 5.015625l-1.640625 0zm21.853333 -1.1875q-0.921875 0.765625 -1.765625 1.09375q-0.828125 0.3125 -1.796875 0.3125q-1.59375 0 -2.453125 -0.78125q-0.859375 -0.78125 -0.859375 -1.984375q0 -0.71875 0.328125 -1.296875q0.328125 -0.59375 0.84375 -0.9375q0.53125 -0.359375 1.1875 -0.546875q0.46875 -0.125 1.453125 -0.25q1.984375 -0.234375 2.921875 -0.5625q0.015625 -0.34375 0.015625 -0.421875q0 -1.0 -0.46875 -1.421875q-0.625 -0.546875 -1.875 -0.546875q-1.15625 0 -1.703125 0.40625q-0.546875 0.40625 -0.8125 1.421875l-1.609375 -0.21875q0.21875 -1.015625 0.71875 -1.640625q0.5 -0.640625 1.453125 -0.984375q0.953125 -0.34375 2.1875 -0.34375q1.25 0 2.015625 0.296875q0.78125 0.28125 1.140625 0.734375q0.375 0.4375 0.515625 1.109375q0.078125 0.421875 0.078125 1.515625l0 2.1875q0 2.28125 0.109375 2.890625q0.109375 0.59375 0.40625 1.15625l-1.703125 0q-0.265625 -0.515625 -0.328125 -1.1875zm-0.140625 -3.671875q-0.890625 0.375 -2.671875 0.625q-1.015625 0.140625 -1.4375 0.328125q-0.421875 0.1875 -0.65625 0.53125q-0.21875 0.34375 -0.21875 0.78125q0 0.65625 0.5 1.09375q0.5 0.4375 1.453125 0.4375q0.9375 0 1.671875 -0.40625q0.75 -0.421875 1.09375 -1.140625q0.265625 -0.5625 0.265625 -1.640625l0 -0.609375zm3.1100464 4.859375l3.53125 -5.03125l-3.265625 -4.640625l2.046875 0l1.484375 2.265625q0.421875 0.640625 0.671875 1.078125q0.40625 -0.59375 0.734375 -1.0625l1.640625 -2.28125l1.953125 0l-3.34375 4.546875l3.59375 5.125l-2.015625 0l-1.984375 -3.0l-0.515625 -0.8125l-2.546875 3.8125l-1.984375 0zm10.421875 -11.46875l0 -1.890625l1.640625 0l0 1.890625l-1.640625 0zm0 11.46875l0 -9.671875l1.640625 0l0 9.671875l-1.640625 0zm4.1448364 0l0 -9.671875l1.46875 0l0 1.359375q0.453125 -0.71875 1.203125 -1.140625q0.765625 -0.4375 1.71875 -0.4375q1.078125 0 1.765625 0.453125q0.6875 0.4375 0.96875 1.234375q1.15625 -1.6875 2.984375 -1.6875q1.453125 0 2.21875 0.796875q0.78125 0.796875 0.78125 2.453125l0 6.640625l-1.640625 0l0 -6.09375q0 -0.984375 -0.15625 -1.40625q-0.15625 -0.4375 -0.578125 -0.703125q-0.421875 -0.265625 -0.984375 -0.265625q-1.015625 0 -1.6875 0.6875q-0.671875 0.671875 -0.671875 2.15625l0 5.625l-1.640625 0l0 -6.28125q0 -1.09375 -0.40625 -1.640625q-0.40625 -0.546875 -1.3125 -0.546875q-0.6875 0 -1.28125 0.359375q-0.59375 0.359375 -0.859375 1.0625q-0.25 0.703125 -0.25 2.03125l0 5.015625l-1.640625 0zm21.868958 0l0 -1.421875q-1.125 1.640625 -3.0625 1.640625q-0.859375 0 -1.609375 -0.328125q-0.734375 -0.328125 -1.09375 -0.828125q-0.359375 -0.5 -0.5 -1.21875q-0.109375 -0.46875 -0.109375 -1.53125l0 -5.984375l1.640625 0l0 5.359375q0 1.28125 0.109375 1.734375q0.15625 0.640625 0.65625 1.015625q0.5 0.375 1.234375 0.375q0.734375 0 1.375 -0.375q0.65625 -0.390625 0.921875 -1.03125q0.265625 -0.65625 0.265625 -1.890625l0 -5.1875l1.640625 0l0 9.671875l-1.46875 0zm4.0475464 0l0 -9.671875l1.46875 0l0 1.359375q0.453125 -0.71875 1.203125 -1.140625q0.765625 -0.4375 1.71875 -0.4375q1.078125 0 1.765625 0.453125q0.6875 0.4375 0.96875 1.234375q1.15625 -1.6875 2.984375 -1.6875q1.453125 0 2.21875 0.796875q0.78125 0.796875 0.78125 2.453125l0 6.640625l-1.640625 0l0 -6.09375q0 -0.984375 -0.15625 -1.40625q-0.15625 -0.4375 -0.578125 -0.703125q-0.421875 -0.265625 -0.984375 -0.265625q-1.015625 0 -1.6875 0.6875q-0.671875 0.671875 -0.671875 2.15625l0 5.625l-1.640625 0l0 -6.28125q0 -1.09375 -0.40625 -1.640625q-0.40625 -0.546875 -1.3125 -0.546875q-0.6875 0 -1.28125 0.359375q-0.59375 0.359375 -0.859375 1.0625q-0.25 0.703125 -0.25 2.03125l0 5.015625l-1.640625 0zm16.618958 3.921875l-1.1875 0q2.734375 -4.375 2.734375 -8.75q0 -1.71875 -0.390625 -3.390625q-0.3125 -1.375 -0.875 -2.625q-0.359375 -0.828125 -1.46875 -2.734375l1.1875 0q1.703125 2.28125 2.53125 4.59375q0.6875 1.984375 0.6875 4.140625q0 2.46875 -0.9375 4.765625q-0.9375 2.296875 -2.28125 4.0z" fill-rule="nonzero"/><path fill="#000000" fill-opacity="0.0" d="m848.92126 36.509186l69.98425 0l0 30.425194l-69.98425 0z" fill-rule="evenodd"/><path fill="#000000" d="m862.4994 58.38731q-1.390625 0 -2.1875 -0.359375q-0.796875 -0.375 -1.203125 -1.421875q-0.40625 -1.0625 -0.40625 -3.15625q0 -2.078125 0.421875 -3.15625q0.421875 -1.09375 1.21875 -1.484375q0.796875 -0.390625 2.15625 -0.390625q1.375 0 2.171875 0.390625q0.8125 0.375 1.203125 1.46875q0.40625 1.078125 0.40625 3.171875q0 2.09375 -0.40625 3.15625q-0.40625 1.046875 -1.203125 1.421875q-0.796875 0.359375 -2.171875 0.359375zm0 -0.9375q1.0625 0 1.625 -0.296875q0.5625 -0.296875 0.828125 -1.140625q0.265625 -0.859375 0.265625 -2.5625q0 -1.78125 -0.265625 -2.640625q-0.265625 -0.875 -0.828125 -1.15625q-0.5625 -0.28125 -1.625 -0.28125q-1.015625 0 -1.59375 0.28125q-0.578125 0.28125 -0.859375 1.171875q-0.28125 0.875 -0.28125 2.625q0 1.71875 0.25 2.5625q0.25 0.84375 0.8125 1.140625q0.578125 0.296875 1.671875 0.296875zm7.6899414 0.9375q-2.125 0 -2.125 -2.1875l0 -5.015625l1.046875 0l0 4.75q0 0.859375 0.375 1.1875q0.390625 0.328125 1.171875 0.328125q0.609375 0 1.125 -0.15625q0.515625 -0.171875 1.09375 -0.515625l0 -5.59375l1.046875 0l0 7.125l-0.828125 0l-0.21875 -0.78125q-1.359375 0.859375 -2.6875 0.859375zm8.086914 -0.078125q-1.0625 0 -1.5625 -0.53125q-0.484375 -0.546875 -0.453125 -1.78125l0.046875 -3.9375l-1.140625 0l0 -0.6875l1.140625 -0.1875l0.1875 -1.984375l0.8125 0l0 1.984375l2.046875 0l0 0.875l-2.046875 0l0 3.9375q0 0.8125 0.296875 1.125q0.3125 0.296875 0.78125 0.328125l0.859375 0.09375l0 0.765625l-0.96875 0zm4.3914185 0.015625q-0.9375 0 -1.40625 -0.515625q-0.453125 -0.53125 -0.453125 -1.78125l0 -7.890625l1.046875 0l0 7.765625q0 0.875 0.234375 1.203125q0.25 0.3125 0.765625 0.375l0.71875 0.078125l0 0.765625l-0.90625 0zm2.215332 -8.40625q-0.09375 0 -0.15625 -0.046875q-0.0625 -0.0625 -0.0625 -0.15625l0 -1.046875q0 -0.203125 0.21875 -0.203125l0.75 0q0.203125 0 0.203125 0.203125l0 1.046875q0 0.203125 -0.203125 0.203125l-0.75 0zm-0.15625 1.265625l1.046875 0l0 7.125l-1.046875 0l0 -7.125zm5.7974854 7.203125q-1.15625 0 -1.796875 -0.328125q-0.625 -0.34375 -0.90625 -1.125q-0.265625 -0.78125 -0.265625 -2.203125q0 -1.421875 0.28125 -2.203125q0.28125 -0.796875 0.921875 -1.109375q0.640625 -0.3125 1.78125 -0.3125q0.96875 0 1.546875 0.21875q0.59375 0.203125 0.875 0.71875q0.28125 0.515625 0.28125 1.421875q0 0.90625 -0.53125 1.3125q-0.53125 0.40625 -1.5 0.40625l-2.609375 0q0.015625 0.90625 0.1875 1.40625q0.171875 0.5 0.640625 0.734375q0.46875 0.234375 1.34375 0.234375l2.296875 0l0 0.640625q-0.71875 0.09375 -1.28125 0.140625q-0.5625 0.046875 -1.265625 0.046875zm0.59375 -3.90625q0.609375 0 0.890625 -0.21875q0.28125 -0.234375 0.28125 -0.796875q0 -0.890625 -0.390625 -1.21875q-0.390625 -0.34375 -1.359375 -0.34375q-0.78125 0 -1.203125 0.234375q-0.40625 0.21875 -0.578125 0.765625q-0.171875 0.546875 -0.171875 1.578125l2.53125 0zm3.8980103 -3.296875l0.796875 0l0.25 1.25q0.515625 -0.625 1.109375 -0.96875q0.609375 -0.359375 1.328125 -0.359375q0.359375 0 0.671875 0.078125l0 1.078125q-0.59375 -0.078125 -0.78125 -0.078125q-0.703125 0 -1.21875 0.265625q-0.5 0.25 -1.109375 0.8125l0 5.046875l-1.046875 0l0 -7.125zm7.944275 7.203125q-0.609375 0 -1.515625 -0.0625q-0.90625 -0.046875 -1.234375 -0.125l0 -0.640625l2.921875 0q0.75 0 1.09375 -0.1875q0.34375 -0.203125 0.34375 -0.84375l0 -0.328125q0 -1.0 -1.296875 -1.0l-1.0 0q-1.015625 0 -1.578125 -0.390625q-0.546875 -0.40625 -0.546875 -1.359375l0 -0.375q0 -1.015625 0.59375 -1.484375q0.59375 -0.46875 1.90625 -0.46875q0.578125 0 1.359375 0.0625q0.78125 0.0625 1.21875 0.140625l0 0.640625l-2.75 0q-0.71875 0 -1.0625 0.25q-0.34375 0.234375 -0.34375 0.859375l0 0.296875q0 0.5625 0.328125 0.765625q0.34375 0.1875 1.046875 0.1875l1.015625 0q0.96875 0 1.5 0.453125q0.546875 0.453125 0.546875 1.3125l0 0.484375q0 1.015625 -0.65625 1.421875q-0.65625 0.390625 -1.890625 0.390625z" fill-rule="nonzero"/><path fill="#000000" fill-opacity="0.0" d="m883.9134 66.93438l0 71.90551" fill-rule="evenodd"/><path stroke="#000000" stroke-width="1.0" stroke-linejoin="round" stroke-linecap="butt" d="m883.9134 66.93438l0 65.90551" fill-rule="evenodd"/><path fill="#000000" stroke="#000000" stroke-width="1.0" stroke-linecap="butt" d="m882.26166 132.83989l1.6517334 4.538101l1.6517334 -4.538101z" fill-rule="evenodd"/><path fill="#000000" fill-opacity="0.0" d="m802.1699 69.95801l82.64563 0l0 30.425194l-82.64563 0z" fill-rule="evenodd"/><path fill="#000000" d="m812.18555 84.633l0.828125 0l0.21875 0.796875q1.34375 -0.90625 2.671875 -0.90625q0.640625 0 1.109375 0.296875q0.46875 0.28125 0.734375 0.75q0.5625 -0.40625 1.359375 -0.71875q0.8125 -0.328125 1.515625 -0.328125q1.109375 0 1.65625 0.6875q0.5625 0.671875 0.5625 1.75l0 4.796875l-1.046875 0l0 -4.71875q0 -0.6875 -0.40625 -1.125q-0.40625 -0.4375 -1.109375 -0.4375q-0.5625 0 -1.1875 0.21875q-0.625 0.21875 -1.1875 0.5625q0.125 0.421875 0.125 0.796875l0 4.703125l-1.046875 0l0 -4.71875q0 -0.6875 -0.390625 -1.125q-0.390625 -0.4375 -1.09375 -0.4375q-0.640625 0 -1.140625 0.171875q-0.5 0.171875 -1.125 0.53125l0 5.578125l-1.046875 0l0 -7.125zm14.025635 7.203125q-0.8125 0 -1.3125 -0.46875q-0.5 -0.484375 -0.5 -1.3125l0 -0.515625q0 -0.859375 0.5625 -1.359375q0.578125 -0.515625 1.671875 -0.515625l2.40625 0l0 -0.875q0 -0.71875 -0.390625 -1.0625q-0.390625 -0.359375 -1.4375 -0.359375l-2.21875 0l0 -0.625q1.25 -0.203125 2.59375 -0.203125q1.296875 0 1.90625 0.53125q0.609375 0.515625 0.609375 1.65625l0 5.03125l-0.8125 0l-0.203125 -0.8125q-0.09375 0.078125 -0.578125 0.3125q-0.484375 0.21875 -1.125 0.40625q-0.625 0.171875 -1.171875 0.171875zm0.453125 -0.78125q0.359375 0 0.875 -0.125q0.53125 -0.140625 0.953125 -0.28125q0.421875 -0.15625 0.546875 -0.203125l0 -2.25l-2.171875 0.09375q-0.734375 0.03125 -1.078125 0.375q-0.328125 0.328125 -0.328125 0.890625l0 0.328125q0 0.609375 0.34375 0.890625q0.359375 0.28125 0.859375 0.28125zm8.373169 -2.796875l2.515625 3.5l-1.09375 0l-2.046875 -2.859375l-1.984375 2.859375l-1.0625 0l2.5 -3.609375l-2.5 -3.515625l1.078125 0l2.0625 2.875l1.953125 -2.859375l1.09375 -0.015625l-2.515625 3.625zm3.9604492 -4.890625q-0.09375 0 -0.15625 -0.046875q-0.0625 -0.0625 -0.0625 -0.15625l0 -1.046875q0 -0.203125 0.21875 -0.203125l0.75 0q0.203125 0 0.203125 0.203125l0 1.046875q0 0.203125 -0.203125 0.203125l-0.75 0zm-0.15625 1.265625l1.046875 0l0 7.125l-1.046875 0l0 -7.125zm3.0787964 0l0.828125 0l0.21875 0.796875q1.34375 -0.90625 2.671875 -0.90625q0.640625 0 1.109375 0.296875q0.46875 0.28125 0.734375 0.75q0.5625 -0.40625 1.359375 -0.71875q0.8125 -0.328125 1.515625 -0.328125q1.109375 0 1.65625 0.6875q0.5625 0.671875 0.5625 1.75l0 4.796875l-1.046875 0l0 -4.71875q0 -0.6875 -0.40625 -1.125q-0.40625 -0.4375 -1.109375 -0.4375q-0.5625 0 -1.1875 0.21875q-0.625 0.21875 -1.1875 0.5625q0.125 0.421875 0.125 0.796875l0 4.703125l-1.046875 0l0 -4.71875q0 -0.6875 -0.390625 -1.125q-0.390625 -0.4375 -1.09375 -0.4375q-0.640625 0 -1.140625 0.171875q-0.5 0.171875 -1.125 0.53125l0 5.578125l-1.046875 0l0 -7.125zm14.744385 7.203125q-2.125 0 -2.125 -2.1875l0 -5.015625l1.046875 0l0 4.75q0 0.859375 0.375 1.1875q0.390625 0.328125 1.171875 0.328125q0.609375 0 1.125 -0.15625q0.515625 -0.171875 1.09375 -0.515625l0 -5.59375l1.046875 0l0 7.125l-0.828125 0l-0.21875 -0.78125q-1.359375 0.859375 -2.6875 0.859375zm5.727539 -7.203125l0.828125 0l0.21875 0.796875q1.34375 -0.90625 2.671875 -0.90625q0.640625 0 1.109375 0.296875q0.46875 0.28125 0.734375 0.75q0.5625 -0.40625 1.359375 -0.71875q0.8125 -0.328125 1.515625 -0.328125q1.109375 0 1.65625 0.6875q0.5625 0.671875 0.5625 1.75l0 4.796875l-1.046875 0l0 -4.71875q0 -0.6875 -0.40625 -1.125q-0.40625 -0.4375 -1.109375 -0.4375q-0.5625 0 -1.1875 0.21875q-0.625 0.21875 -1.1875 0.5625q0.125 0.421875 0.125 0.796875l0 4.703125l-1.046875 0l0 -4.71875q0 -0.6875 -0.390625 -1.125q-0.390625 -0.4375 -1.09375 -0.4375q-0.640625 0 -1.140625 0.171875q-0.5 0.171875 -1.125 0.53125l0 5.578125l-1.046875 0l0 -7.125z" fill-rule="nonzero"/><path fill="#000000" fill-opacity="0.0" d="m843.49274 100.3832l-0.34643555 35.244102" fill-rule="evenodd"/><path stroke="#000000" stroke-width="1.0" stroke-linejoin="round" stroke-linecap="butt" d="m843.4927 100.3832l-0.2874756 29.244377" fill-rule="evenodd"/><path fill="#000000" stroke="#000000" stroke-width="1.0" stroke-linecap="butt" d="m841.5536 129.61134l1.6069946 4.554123l1.6962891 -4.521637z" fill-rule="evenodd"/><path fill="#000000" fill-opacity="0.0" d="m433.01312 16.459318l69.98425 0l0 30.425196l-69.98425 0z" fill-rule="evenodd"/><path fill="#000000" d="m451.35687 38.259315l-0.9375 -8.140623l-2.359375 8.140623l-0.96875 0l-2.40625 -8.078123l-0.890625 8.078123l-1.015625 0l1.109375 -9.812498l1.078125 0l2.625 8.484373l2.546875 -8.484373l1.09375 0l1.15625 9.812498l-1.03125 0zm5.3862305 0.078125q-1.15625 0 -1.796875 -0.328125q-0.625 -0.34375 -0.90625 -1.125q-0.265625 -0.78125 -0.265625 -2.203125q0 -1.421875 0.28125 -2.203125q0.28125 -0.7968731 0.921875 -1.1093731q0.640625 -0.3125 1.78125 -0.3125q0.96875 0 1.546875 0.21875q0.59375 0.203125 0.875 0.71875q0.28125 0.5156231 0.28125 1.4218731q0 0.90625 -0.53125 1.3125q-0.53125 0.40625 -1.5 0.40625l-2.609375 0q0.015625 0.90625 0.1875 1.40625q0.171875 0.5 0.640625 0.734375q0.46875 0.234375 1.34375 0.234375l2.296875 0l0 0.640625q-0.71875 0.09375 -1.28125 0.140625q-0.5625 0.046875 -1.265625 0.046875zm0.59375 -3.90625q0.609375 0 0.890625 -0.21875q0.28125 -0.234375 0.28125 -0.796875q0 -0.890625 -0.390625 -1.21875q-0.390625 -0.3437481 -1.359375 -0.3437481q-0.78125 0 -1.203125 0.2343731q-0.40625 0.21875 -0.578125 0.765625q-0.171875 0.546875 -0.171875 1.578125l2.53125 0zm6.1948853 3.90625q-1.3125 0 -1.9375 -0.859375q-0.609375 -0.875 -0.609375 -2.71875q0 -1.34375 0.265625 -2.15625q0.265625 -0.8124981 0.84375 -1.1718731q0.59375 -0.375 1.578125 -0.375q1.015625 0 2.1875 0.421875l0 -3.390625l1.046875 0l0 10.171873l-0.84375 0l-0.203125 -0.71875q-0.328125 0.28125 -1.03125 0.546875q-0.703125 0.25 -1.296875 0.25zm0.3125 -0.859375q0.5625 0 1.03125 -0.171875q0.46875 -0.171875 0.984375 -0.4375l0 -4.640625q-0.625 -0.1875 -1.03125 -0.2656231q-0.390625 -0.09375 -0.875 -0.09375q-0.703125 0 -1.125 0.2656231q-0.40625 0.265625 -0.609375 0.875q-0.1875 0.609375 -0.1875 1.703125q0 1.5 0.40625 2.140625q0.421875 0.625 1.40625 0.625zm5.2105103 -7.609373q-0.09375 0 -0.15625 -0.046875q-0.0625 -0.0625 -0.0625 -0.15625l0 -1.046875q0 -0.203125 0.21875 -0.203125l0.75 0q0.203125 0 0.203125 0.203125l0 1.046875q0 0.203125 -0.203125 0.203125l-0.75 0zm-0.15625 1.265625l1.046875 0l0 7.124998l-1.046875 0l0 -7.124998zm4.4694214 7.203123q-0.8125 0 -1.3125 -0.46875q-0.5 -0.484375 -0.5 -1.3125l0 -0.515625q0 -0.859375 0.5625 -1.359375q0.578125 -0.515625 1.671875 -0.515625l2.40625 0l0 -0.875q0 -0.71875 -0.390625 -1.0625q-0.390625 -0.3593731 -1.4375 -0.3593731l-2.21875 0l0 -0.625q1.25 -0.203125 2.59375 -0.203125q1.296875 0 1.90625 0.53125q0.609375 0.5156231 0.609375 1.6562481l0 5.03125l-0.8125 0l-0.203125 -0.8125q-0.09375 0.078125 -0.578125 0.3125q-0.484375 0.21875 -1.125 0.40625q-0.625 0.171875 -1.171875 0.171875zm0.453125 -0.78125q0.359375 0 0.875 -0.125q0.53125 -0.140625 0.953125 -0.28125q0.421875 -0.15625 0.546875 -0.203125l0 -2.25l-2.171875 0.09375q-0.734375 0.03125 -1.078125 0.375q-0.328125 0.328125 -0.328125 0.890625l0 0.328125q0 0.609375 0.34375 0.890625q0.359375 0.28125 0.859375 0.28125zm5.420044 -6.421873l0.828125 0l0.21875 0.796875q0.5625 -0.390625 1.234375 -0.640625q0.6875 -0.265625 1.375 -0.265625q1.09375 0 1.640625 0.6875q0.546875 0.6718731 0.546875 1.7031231l0 4.84375l-1.046875 0l0 -4.71875q0 -0.6875 -0.390625 -1.125q-0.390625 -0.4374981 -1.09375 -0.4374981q-0.640625 0 -1.140625 0.1718731q-0.5 0.171875 -1.125 0.53125l0 5.578125l-1.046875 0l0 -7.124998z" fill-rule="nonzero"/><path fill="#000000" fill-opacity="0.0" d="m468.00525 46.884514l0 48.661415" fill-rule="evenodd"/><path stroke="#000000" stroke-width="1.0" stroke-linejoin="round" stroke-linecap="butt" d="m468.00525 46.884514l0 42.661415" fill-rule="evenodd"/><path fill="#000000" stroke="#000000" stroke-width="1.0" stroke-linecap="butt" d="m466.35352 89.54593l1.6517334 4.538101l1.6517334 -4.538101z" fill-rule="evenodd"/></g></svg>